<svg width="647" height="135" viewBox="0 0 647 135" fill="none" xmlns="http://www.w3.org/2000/svg">
<path d="M157.131 111.115V23.8425H190.54C196.847 23.8425 202.088 24.8368 206.264 26.8255C210.469 28.7857 213.608 31.4703 215.682 34.8794C217.784 38.2885 218.835 42.1522 218.835 46.4703C218.835 50.0215 218.154 53.0613 216.79 55.5897C215.426 58.0897 213.594 60.1209 211.293 61.6834C208.992 63.2459 206.421 64.3681 203.58 65.0499V65.9022C206.676 66.0726 209.645 67.0243 212.486 68.7573C215.355 70.4618 217.699 72.8766 219.517 76.0016C221.335 79.1266 222.245 82.905 222.245 87.3368C222.245 91.8539 221.151 95.9164 218.963 99.5243C216.776 103.104 213.48 105.931 209.077 108.004C204.674 110.078 199.134 111.115 192.458 111.115H157.131ZM172.941 97.905H189.943C195.682 97.905 199.816 96.8113 202.344 94.6238C204.901 92.4078 206.179 89.5669 206.179 86.101C206.179 83.5158 205.54 81.1863 204.262 79.1124C202.983 77.0101 201.165 75.3624 198.807 74.1692C196.449 72.9476 193.637 72.3368 190.37 72.3368H172.941V97.905ZM172.941 60.959H188.58C191.307 60.959 193.764 60.4618 195.952 59.4675C198.139 58.4448 199.858 57.0101 201.108 55.1635C202.387 53.2885 203.026 51.0726 203.026 48.5158C203.026 45.1351 201.833 42.351 199.446 40.1635C197.088 37.976 193.58 36.8823 188.921 36.8823H172.941V60.959ZM264.024 112.394C257.461 112.394 251.793 111.03 247.021 108.303C242.276 105.547 238.626 101.655 236.069 96.6266C233.512 91.5698 232.234 85.6181 232.234 78.7715C232.234 72.0385 233.512 66.1294 236.069 61.0442C238.654 55.9306 242.262 51.9533 246.893 49.1124C251.524 46.2431 256.964 44.8084 263.214 44.8084C267.248 44.8084 271.055 45.4618 274.634 46.7686C278.242 48.047 281.424 50.0357 284.18 52.7346C286.964 55.4334 289.151 58.8709 290.742 63.0471C292.333 67.1948 293.129 72.138 293.129 77.8766V82.6067H239.478V72.209H278.342C278.313 69.2544 277.674 66.6266 276.424 64.3255C275.174 61.9959 273.427 60.1635 271.183 58.8283C268.967 57.4931 266.382 56.8255 263.427 56.8255C260.274 56.8255 257.504 57.5925 255.117 59.1266C252.731 60.6323 250.87 62.6209 249.535 65.0925C248.228 67.5357 247.56 70.2203 247.532 73.1465V82.2232C247.532 86.03 248.228 89.2971 249.62 92.0243C251.012 94.7232 252.958 96.7971 255.458 98.2459C257.958 99.6664 260.884 100.377 264.237 100.377C266.481 100.377 268.512 100.064 270.33 99.4391C272.149 98.7857 273.725 97.834 275.06 96.584C276.396 95.334 277.404 93.7857 278.086 91.9391L292.489 93.5584C291.58 97.3652 289.847 100.689 287.291 103.53C284.762 106.343 281.524 108.53 277.575 110.093C273.626 111.627 269.109 112.394 264.024 112.394ZM338.594 45.6607V57.5925H300.966V45.6607H338.594ZM310.256 29.9789H325.682V91.4277C325.682 93.5016 325.994 95.0925 326.619 96.2005C327.273 97.28 328.125 98.0186 329.176 98.4164C330.227 98.8141 331.392 99.013 332.67 99.013C333.636 99.013 334.517 98.9419 335.313 98.7999C336.136 98.6578 336.761 98.53 337.188 98.4164L339.787 110.476C338.963 110.76 337.784 111.073 336.25 111.414C334.744 111.754 332.898 111.953 330.71 112.01C326.847 112.124 323.366 111.541 320.27 110.263C317.173 108.956 314.716 106.939 312.898 104.212C311.108 101.485 310.227 98.0755 310.256 93.9846V29.9789ZM383.91 45.6607V57.5925H346.282V45.6607H383.91ZM355.572 29.9789H370.998V91.4277C370.998 93.5016 371.31 95.0925 371.935 96.2005C372.589 97.28 373.441 98.0186 374.492 98.4164C375.543 98.8141 376.708 99.013 377.986 99.013C378.952 99.013 379.833 98.9419 380.628 98.7999C381.452 98.6578 382.077 98.53 382.503 98.4164L385.103 110.476C384.279 110.76 383.1 111.073 381.566 111.414C380.06 111.754 378.214 111.953 376.026 112.01C372.163 112.124 368.682 111.541 365.586 110.263C362.489 108.956 360.032 106.939 358.214 104.212C356.424 101.485 355.543 98.0755 355.572 93.9846V29.9789ZM424.815 112.394C418.253 112.394 412.585 111.03 407.812 108.303C403.068 105.547 399.417 101.655 396.861 96.6266C394.304 91.5698 393.025 85.6181 393.025 78.7715C393.025 72.0385 394.304 66.1294 396.861 61.0442C399.446 55.9306 403.054 51.9533 407.684 49.1124C412.315 46.2431 417.755 44.8084 424.005 44.8084C428.04 44.8084 431.846 45.4618 435.426 46.7686C439.034 48.047 442.216 50.0357 444.971 52.7346C447.755 55.4334 449.943 58.8709 451.534 63.0471C453.125 67.1948 453.92 72.138 453.92 77.8766V82.6067H400.27V72.209H439.133C439.105 69.2544 438.466 66.6266 437.216 64.3255C435.966 61.9959 434.219 60.1635 431.974 58.8283C429.758 57.4931 427.173 56.8255 424.219 56.8255C421.065 56.8255 418.295 57.5925 415.909 59.1266C413.522 60.6323 411.662 62.6209 410.326 65.0925C409.02 67.5357 408.352 70.2203 408.324 73.1465V82.2232C408.324 86.03 409.02 89.2971 410.412 92.0243C411.804 94.7232 413.75 96.7971 416.25 98.2459C418.75 99.6664 421.676 100.377 425.028 100.377C427.272 100.377 429.304 100.064 431.122 99.4391C432.94 98.7857 434.517 97.834 435.852 96.584C437.187 95.334 438.196 93.7857 438.878 91.9391L453.281 93.5584C452.372 97.3652 450.639 100.689 448.082 103.53C445.554 106.343 442.315 108.53 438.366 110.093C434.417 111.627 429.9 112.394 424.815 112.394ZM466.701 111.115V45.6607H481.658V56.5698H482.34C483.533 52.7914 485.578 49.8794 488.476 47.834C491.402 45.7601 494.74 44.7232 498.49 44.7232C499.343 44.7232 500.294 44.7658 501.346 44.851C502.425 44.9078 503.32 45.0073 504.03 45.1493V59.3397C503.377 59.1124 502.34 58.9135 500.919 58.7431C499.527 58.5442 498.178 58.4448 496.871 58.4448C494.059 58.4448 491.53 59.0556 489.286 60.2772C487.07 61.4703 485.323 63.1323 484.044 65.263C482.766 67.3936 482.127 69.851 482.127 72.6351V111.115H466.701ZM569.705 23.8425H585.514V80.8596C585.514 87.1096 584.037 92.6067 581.083 97.351C578.157 102.095 574.037 105.803 568.725 108.473C563.412 111.115 557.205 112.436 550.103 112.436C542.972 112.436 536.75 111.115 531.438 108.473C526.125 105.803 522.006 102.095 519.08 97.351C516.154 92.6067 514.691 87.1096 514.691 80.8596V23.8425H530.5V79.5385C530.5 83.1749 531.296 86.4135 532.887 89.2544C534.506 92.0953 536.779 94.3255 539.705 95.9448C542.631 97.5357 546.097 98.3311 550.103 98.3311C554.108 98.3311 557.574 97.5357 560.5 95.9448C563.455 94.3255 565.728 92.0953 567.318 89.2544C568.909 86.4135 569.705 83.1749 569.705 79.5385V23.8425ZM618.238 23.8425V111.115H602.428V23.8425H618.238Z" fill="white"/>
<rect width="135.833" height="134.425" rx="32" fill="white"/>
<rect width="34.6556" height="11.3433" rx="5.67164" transform="matrix(0.71078 -0.703414 0.71078 0.703414 27.9558 67.0421)" fill="black"/>
<rect width="34.6556" height="11.3433" rx="5.67164" transform="matrix(0.71078 0.703414 -0.71078 0.703414 35.8608 59.3972)" fill="black"/>
<rect width="34.6556" height="11.3433" rx="5.67164" transform="matrix(-0.71078 0.703414 -0.71078 -0.703414 109.14 67.2272)" fill="black"/>
<rect width="34.6556" height="11.3433" rx="5.67164" transform="matrix(-0.71078 -0.703414 0.71078 -0.703414 101.235 74.8721)" fill="black"/>
</svg>
