<svg width="647" height="136" viewBox="0 0 647 136" fill="none" xmlns="http://www.w3.org/2000/svg">
<path d="M157.608 112V24.7273H191.017C197.324 24.7273 202.565 25.7216 206.741 27.7102C210.946 29.6705 214.085 32.3551 216.159 35.7642C218.261 39.1733 219.312 43.0369 219.312 47.3551C219.312 50.9062 218.631 53.946 217.267 56.4744C215.903 58.9744 214.071 61.0057 211.77 62.5682C209.469 64.1307 206.898 65.2528 204.057 65.9347V66.7869C207.153 66.9574 210.122 67.9091 212.963 69.642C215.832 71.3466 218.176 73.7614 219.994 76.8864C221.813 80.0114 222.722 83.7898 222.722 88.2216C222.722 92.7386 221.628 96.8011 219.44 100.409C217.253 103.989 213.957 106.815 209.554 108.889C205.151 110.963 199.611 112 192.935 112H157.608ZM173.418 98.7898H190.42C196.159 98.7898 200.293 97.696 202.821 95.5085C205.378 93.2926 206.656 90.4517 206.656 86.9858C206.656 84.4006 206.017 82.071 204.739 79.9972C203.46 77.8949 201.642 76.2472 199.284 75.054C196.926 73.8324 194.114 73.2216 190.847 73.2216H173.418V98.7898ZM173.418 61.8438H189.057C191.784 61.8438 194.241 61.3466 196.429 60.3523C198.616 59.3295 200.335 57.8949 201.585 56.0483C202.864 54.1733 203.503 51.9574 203.503 49.4006C203.503 46.0199 202.31 43.2358 199.923 41.0483C197.565 38.8608 194.057 37.767 189.398 37.767H173.418V61.8438ZM264.501 113.278C257.938 113.278 252.27 111.915 247.498 109.188C242.753 106.432 239.103 102.54 236.546 97.5114C233.989 92.4545 232.711 86.5028 232.711 79.6562C232.711 72.9233 233.989 67.0142 236.546 61.929C239.131 56.8153 242.739 52.8381 247.37 49.9972C252.001 47.1278 257.441 45.6932 263.691 45.6932C267.725 45.6932 271.532 46.3466 275.111 47.6534C278.719 48.9318 281.901 50.9205 284.657 53.6193C287.441 56.3182 289.628 59.7557 291.219 63.9318C292.81 68.0795 293.606 73.0227 293.606 78.7614V83.4915H239.955V73.0938H278.819C278.79 70.1392 278.151 67.5114 276.901 65.2102C275.651 62.8807 273.904 61.0483 271.66 59.7131C269.444 58.3778 266.859 57.7102 263.904 57.7102C260.751 57.7102 257.981 58.4773 255.594 60.0114C253.208 61.517 251.347 63.5057 250.012 65.9773C248.705 68.4205 248.038 71.1051 248.009 74.0312V83.108C248.009 86.9148 248.705 90.1818 250.097 92.9091C251.489 95.608 253.435 97.6818 255.935 99.1307C258.435 100.551 261.361 101.261 264.714 101.261C266.958 101.261 268.989 100.949 270.807 100.324C272.626 99.6705 274.202 98.7188 275.538 97.4688C276.873 96.2188 277.881 94.6705 278.563 92.8239L292.967 94.4432C292.057 98.25 290.324 101.574 287.768 104.415C285.239 107.227 282.001 109.415 278.052 110.977C274.103 112.511 269.586 113.278 264.501 113.278ZM339.071 46.5455V58.4773H301.443V46.5455H339.071ZM310.733 30.8636H326.159V92.3125C326.159 94.3864 326.471 95.9773 327.096 97.0852C327.75 98.1648 328.602 98.9034 329.653 99.3011C330.704 99.6989 331.869 99.8977 333.148 99.8977C334.113 99.8977 334.994 99.8267 335.79 99.6847C336.613 99.5426 337.238 99.4148 337.665 99.3011L340.264 111.361C339.44 111.645 338.261 111.957 336.727 112.298C335.221 112.639 333.375 112.838 331.187 112.895C327.324 113.009 323.844 112.426 320.747 111.148C317.65 109.841 315.193 107.824 313.375 105.097C311.585 102.369 310.704 98.9602 310.733 94.8693V30.8636ZM384.387 46.5455V58.4773H346.759V46.5455H384.387ZM356.049 30.8636H371.475V92.3125C371.475 94.3864 371.787 95.9773 372.412 97.0852C373.066 98.1648 373.918 98.9034 374.969 99.3011C376.02 99.6989 377.185 99.8977 378.463 99.8977C379.429 99.8977 380.31 99.8267 381.105 99.6847C381.929 99.5426 382.554 99.4148 382.98 99.3011L385.58 111.361C384.756 111.645 383.577 111.957 382.043 112.298C380.537 112.639 378.691 112.838 376.503 112.895C372.64 113.009 369.159 112.426 366.063 111.148C362.966 109.841 360.509 107.824 358.691 105.097C356.901 102.369 356.02 98.9602 356.049 94.8693V30.8636ZM425.292 113.278C418.73 113.278 413.062 111.915 408.289 109.188C403.545 106.432 399.894 102.54 397.338 97.5114C394.781 92.4545 393.502 86.5028 393.502 79.6562C393.502 72.9233 394.781 67.0142 397.338 61.929C399.923 56.8153 403.531 52.8381 408.161 49.9972C412.792 47.1278 418.232 45.6932 424.482 45.6932C428.517 45.6932 432.323 46.3466 435.903 47.6534C439.511 48.9318 442.693 50.9205 445.448 53.6193C448.233 56.3182 450.42 59.7557 452.011 63.9318C453.602 68.0795 454.397 73.0227 454.397 78.7614V83.4915H400.747V73.0938H439.61C439.582 70.1392 438.943 67.5114 437.693 65.2102C436.443 62.8807 434.696 61.0483 432.451 59.7131C430.235 58.3778 427.65 57.7102 424.696 57.7102C421.542 57.7102 418.772 58.4773 416.386 60.0114C414 61.517 412.139 63.5057 410.804 65.9773C409.497 68.4205 408.829 71.1051 408.801 74.0312V83.108C408.801 86.9148 409.497 90.1818 410.889 92.9091C412.281 95.608 414.227 97.6818 416.727 99.1307C419.227 100.551 422.153 101.261 425.505 101.261C427.75 101.261 429.781 100.949 431.599 100.324C433.417 99.6705 434.994 98.7188 436.329 97.4688C437.664 96.2188 438.673 94.6705 439.355 92.8239L453.758 94.4432C452.849 98.25 451.116 101.574 448.559 104.415C446.031 107.227 442.792 109.415 438.843 110.977C434.894 112.511 430.377 113.278 425.292 113.278ZM467.178 112V46.5455H482.135V57.4545H482.817C484.01 53.6761 486.056 50.7642 488.953 48.7188C491.879 46.6449 495.217 45.608 498.967 45.608C499.82 45.608 500.771 45.6506 501.823 45.7358C502.902 45.7926 503.797 45.892 504.507 46.0341V60.2244C503.854 59.9972 502.817 59.7983 501.396 59.6278C500.004 59.429 498.655 59.3295 497.348 59.3295C494.536 59.3295 492.007 59.9403 489.763 61.1619C487.547 62.3551 485.8 64.017 484.521 66.1477C483.243 68.2784 482.604 70.7358 482.604 73.5199V112H467.178ZM570.182 24.7273H585.992V81.7443C585.992 87.9943 584.514 93.4915 581.56 98.2358C578.634 102.98 574.514 106.687 569.202 109.358C563.889 112 557.682 113.321 550.58 113.321C543.449 113.321 537.227 112 531.915 109.358C526.602 106.687 522.483 102.98 519.557 98.2358C516.631 93.4915 515.168 87.9943 515.168 81.7443V24.7273H530.977V80.4233C530.977 84.0597 531.773 87.2983 533.364 90.1392C534.983 92.9801 537.256 95.2102 540.182 96.8295C543.108 98.4205 546.574 99.2159 550.58 99.2159C554.585 99.2159 558.051 98.4205 560.977 96.8295C563.932 95.2102 566.205 92.9801 567.795 90.1392C569.386 87.2983 570.182 84.0597 570.182 80.4233V24.7273ZM618.715 24.7273V112H602.905V24.7273H618.715Z" fill="black"/>
<rect x="0.477051" y="0.884766" width="135.833" height="134.425" rx="32" fill="black"/>
<rect width="34.6556" height="11.3433" rx="5.67164" transform="matrix(0.71078 -0.703414 0.71078 0.703414 28.4329 67.9269)" fill="white"/>
<rect width="34.6556" height="11.3433" rx="5.67164" transform="matrix(0.71078 0.703414 -0.71078 0.703414 36.3379 60.282)" fill="white"/>
<rect width="34.6556" height="11.3433" rx="5.67164" transform="matrix(-0.71078 0.703414 -0.71078 -0.703414 109.617 68.112)" fill="white"/>
<rect width="34.6556" height="11.3433" rx="5.67164" transform="matrix(-0.71078 -0.703414 0.71078 -0.703414 101.712 75.7569)" fill="white"/>
</svg>
